<svg xmlns="http://www.w3.org/2000/svg" version="1.1" xmlns:xlink="http://www.w3.org/1999/xlink" width="1000" height="1000"><style>
    #light-icon {
      display: inline;
    }
    #dark-icon {
      display: none;
    }

    @media (prefers-color-scheme: dark) {
      #light-icon {
        display: none;
      }
      #dark-icon {
        display: inline;
      }
    }
  </style><g id="light-icon"><svg xmlns="http://www.w3.org/2000/svg" version="1.1" xmlns:xlink="http://www.w3.org/1999/xlink" width="1000" height="1000"><g><g transform="matrix(15.625,0,0,15.625,0,0)"><svg xmlns="http://www.w3.org/2000/svg" version="1.1" xmlns:xlink="http://www.w3.org/1999/xlink" width="64" height="64"><svg width="64" height="64" viewBox="0 0 64 64" fill="none" xmlns="http://www.w3.org/2000/svg">
<circle cx="32" cy="32" r="32" fill="#075CA6"></circle>
<path d="M25.5917 32.4203C25.5917 32.4203 16.9346 27.3831 14.3776 25.9267C13.2323 25.1563 12.9366 23.7833 14.7782 22.84L29.9973 14.0575C32.0837 12.8926 32.0583 12.8724 34.2171 14.0575L49.96 23.014C50.761 23.7054 50.8858 24.7497 50.0224 25.6343L33.2012 35.4209C32.3009 35.7207 31.7724 35.6967 30.7982 35.3999L25.5917 32.4203Z" fill="#FFAC38" stroke="#FFAC38" stroke-width="0.2"></path>
<path d="M25.5916 40.0882C25.5916 40.0882 16.9345 35.0511 14.3775 33.5947C13.2322 32.8242 12.7755 31.6225 13.9771 30.4249C14.6299 29.9252 15.0962 30.0331 15.9795 30.4249L29.9971 38.8079C31.6961 39.6592 32.5606 39.5807 34.0021 38.8079L48.4201 30.4249C48.9942 30.1961 49.3373 30.1622 50.0221 30.4249C50.5182 30.8944 50.7287 31.2135 50.8231 32.0216C50.6826 32.8172 50.4464 32.9932 50.0223 33.3023L33.2011 43.0889C32.3008 43.3887 31.7723 43.3646 30.7981 43.0679L25.5916 40.0882Z" fill="#FFAC38" stroke="#FFAC38" stroke-width="0.2"></path>
<path d="M25.4993 47.6092C25.4993 47.6092 16.8422 42.5721 14.2852 41.1157C13.1399 40.3452 12.6832 39.1435 13.8848 37.9459C14.5376 37.4462 15.004 37.5541 15.8872 37.9459L29.9048 46.3289C31.6038 47.1802 32.4683 47.1017 33.9098 46.3289L48.3278 37.9458C48.902 37.7171 49.245 37.6832 49.9298 37.9458C50.4259 38.4154 50.6364 38.7345 50.7308 39.5426C50.5904 40.3382 50.3541 40.5141 49.93 40.8233L33.1088 50.6099C32.2085 50.9097 31.68 50.8856 30.7058 50.5889L25.4993 47.6092Z" fill="#FFAC38" stroke="#FFAC38" stroke-width="0.2"></path>
</svg></svg></g></g></svg></g><g id="dark-icon"><svg xmlns="http://www.w3.org/2000/svg" version="1.1" xmlns:xlink="http://www.w3.org/1999/xlink" width="1000" height="1000"><g clip-path="url(#SvgjsClipPath1345)"><rect width="1000" height="1000" fill="#ffffff"></rect><g transform="matrix(10.9375,0,0,10.9375,150,150)"><svg xmlns="http://www.w3.org/2000/svg" version="1.1" xmlns:xlink="http://www.w3.org/1999/xlink" width="64" height="64"><svg width="64" height="64" viewBox="0 0 64 64" fill="none" xmlns="http://www.w3.org/2000/svg">
<circle cx="32" cy="32" r="32" fill="#075CA6"></circle>
<path d="M25.5917 32.4203C25.5917 32.4203 16.9346 27.3831 14.3776 25.9267C13.2323 25.1563 12.9366 23.7833 14.7782 22.84L29.9973 14.0575C32.0837 12.8926 32.0583 12.8724 34.2171 14.0575L49.96 23.014C50.761 23.7054 50.8858 24.7497 50.0224 25.6343L33.2012 35.4209C32.3009 35.7207 31.7724 35.6967 30.7982 35.3999L25.5917 32.4203Z" fill="#FFAC38" stroke="#FFAC38" stroke-width="0.2"></path>
<path d="M25.5916 40.0882C25.5916 40.0882 16.9345 35.0511 14.3775 33.5947C13.2322 32.8242 12.7755 31.6225 13.9771 30.4249C14.6299 29.9252 15.0962 30.0331 15.9795 30.4249L29.9971 38.8079C31.6961 39.6592 32.5606 39.5807 34.0021 38.8079L48.4201 30.4249C48.9942 30.1961 49.3373 30.1622 50.0221 30.4249C50.5182 30.8944 50.7287 31.2135 50.8231 32.0216C50.6826 32.8172 50.4464 32.9932 50.0223 33.3023L33.2011 43.0889C32.3008 43.3887 31.7723 43.3646 30.7981 43.0679L25.5916 40.0882Z" fill="#FFAC38" stroke="#FFAC38" stroke-width="0.2"></path>
<path d="M25.4993 47.6092C25.4993 47.6092 16.8422 42.5721 14.2852 41.1157C13.1399 40.3452 12.6832 39.1435 13.8848 37.9459C14.5376 37.4462 15.004 37.5541 15.8872 37.9459L29.9048 46.3289C31.6038 47.1802 32.4683 47.1017 33.9098 46.3289L48.3278 37.9458C48.902 37.7171 49.245 37.6832 49.9298 37.9458C50.4259 38.4154 50.6364 38.7345 50.7308 39.5426C50.5904 40.3382 50.3541 40.5141 49.93 40.8233L33.1088 50.6099C32.2085 50.9097 31.68 50.8856 30.7058 50.5889L25.4993 47.6092Z" fill="#FFAC38" stroke="#FFAC38" stroke-width="0.2"></path>
</svg></svg></g></g><defs><clipPath id="SvgjsClipPath1345"><rect width="1000" height="1000" x="0" y="0" rx="350" ry="350"></rect></clipPath></defs></svg></g></svg>